<?xml version="1.0" encoding="UTF-8"?><svg id="Layer_1" xmlns="http://www.w3.org/2000/svg" viewBox="0 0 20 20"><defs><style>.cls-1{fill:#212c8f;stroke-width:0px;}</style></defs><path class="cls-1" d="M18.52,0H1.48C.66,0,0,.66,0,1.48v17.05c0,.82.66,1.48,1.48,1.48h17.05c.82,0,1.48-.66,1.48-1.48V1.48c0-.82-.66-1.48-1.48-1.48ZM5.96,17.04h-3.01V7.49h3.01v9.55ZM4.46,6.16c-.96,0-1.73-.73-1.73-1.73s.78-1.73,1.73-1.73,1.73.73,1.73,1.73-.78,1.73-1.73,1.73ZM17.05,17.05h-3.01v-5.22c0-1.54-.65-2.01-1.5-2.01-.89,0-1.77.67-1.77,2.05v5.18h-3.01V7.49h2.89v1.32h.04c.29-.59,1.31-1.59,2.86-1.59,1.68,0,3.49,1,3.49,3.91v5.91Z"/></svg>