<?xml version="1.0" encoding="UTF-8"?><svg id="Layer_1" xmlns="http://www.w3.org/2000/svg" viewBox="0 0 20 20"><defs><style>.cls-1{fill:#212c8f;stroke-width:0px;}</style></defs><g id="Grupo_162879"><g id="x"><path id="Trazado_38012" class="cls-1" d="M10,0C4.48,0,0,4.48,0,10s4.48,10,10,10,10-4.48,10-10S15.52,0,10,0ZM12.52,16.26l-.24-.35-3.14-4.56h0l-4.22,4.91h-1.04l4.8-5.58h0l-3.9-5.67-.88-1.28h3.6l.24.35,2.93,4.26h0l3.08-3.59.89-1.03h1.04l-4.55,5.29h0l4.1,5.96h0l.88,1.28h-3.6Z"/><path id="Trazado_38013" class="cls-1" d="M10.13,8.99l-3.06-4.44h-1.63l3.78,5.49h0l.46.67h0l3.26,4.73h1.63l-3.98-5.78-.46-.67Z"/></g></g></svg>